<svg width="43" height="43" viewBox="0 0 43 43" fill="none" xmlns="http://www.w3.org/2000/svg">
<path fill-rule="evenodd" clip-rule="evenodd" d="M28.6667 16.1249C28.6667 18.0256 27.9117 19.8485 26.5676 21.1925C25.2236 22.5365 23.4008 23.2916 21.5 23.2916C19.5993 23.2916 17.7765 22.5365 16.4324 21.1925C15.0884 19.8485 14.3334 18.0256 14.3334 16.1249C14.3334 14.2242 15.0884 12.4013 16.4324 11.0573C17.7765 9.71331 19.5993 8.95825 21.5 8.95825C23.4008 8.95825 25.2236 9.71331 26.5676 11.0573C27.9117 12.4013 28.6667 14.2242 28.6667 16.1249ZM25.0834 16.1249C25.0834 17.0753 24.7058 17.9867 24.0338 18.6587C23.3618 19.3307 22.4504 19.7083 21.5 19.7083C20.5497 19.7083 19.6382 19.3307 18.9662 18.6587C18.2942 17.9867 17.9167 17.0753 17.9167 16.1249C17.9167 15.1746 18.2942 14.2631 18.9662 13.5911C19.6382 12.9191 20.5497 12.5416 21.5 12.5416C22.4504 12.5416 23.3618 12.9191 24.0338 13.5911C24.7058 14.2631 25.0834 15.1746 25.0834 16.1249Z" fill="#242424"/>
<path fill-rule="evenodd" clip-rule="evenodd" d="M21.5 1.79163C10.6156 1.79163 1.79169 10.6156 1.79169 21.5C1.79169 32.3843 10.6156 41.2083 21.5 41.2083C32.3844 41.2083 41.2084 32.3843 41.2084 21.5C41.2084 10.6156 32.3844 1.79163 21.5 1.79163ZM5.37502 21.5C5.37502 25.2445 6.65248 28.6917 8.79352 31.4294C10.2971 29.4548 12.2369 27.8545 14.4613 26.7537C16.6858 25.6528 19.1346 25.0811 21.6165 25.0833C24.0663 25.081 26.4843 25.6379 28.6863 26.7115C30.8883 27.7852 32.8161 29.3473 34.323 31.2789C35.8754 29.2428 36.9206 26.8664 37.3722 24.3462C37.8238 21.826 37.6688 19.2345 36.92 16.7861C36.1712 14.3377 34.8501 12.1028 33.0661 10.2663C31.2821 8.4298 29.0864 7.04454 26.6607 6.22512C24.235 5.4057 21.6491 5.17567 19.1169 5.55408C16.5846 5.93248 14.1789 6.90843 12.0987 8.40118C10.0186 9.89393 8.32376 11.8606 7.15456 14.1383C5.98535 16.4161 5.37534 18.9396 5.37502 21.5ZM21.5 37.625C17.7983 37.6305 14.2084 36.3571 11.3377 34.0201C12.4932 32.3659 14.0312 31.0154 15.8208 30.0833C17.6104 29.1512 19.5987 28.6652 21.6165 28.6666C23.6091 28.665 25.5733 29.1389 27.3461 30.0488C29.1188 30.9587 30.6489 32.2784 31.8093 33.8983C28.9163 36.3111 25.2671 37.6302 21.5 37.625Z" fill="#242424"/>
</svg>
